<svg xmlns="http://www.w3.org/2000/svg" viewBox="0 0 150 54.237"><g transform="translate(-138 -67)"><path d="M66.829,54.237l-.737-1.669H63.425l-.684,1.669h-.894l2.435-5.525h.91l2.6,5.525Zm-2.462-3.89-.691,1.626h2.156l-.659-1.534c-.2-.466-.359-.85-.458-1.149A7.141,7.141,0,0,1,64.366,50.347Zm31.576,3.661A2.016,2.016,0,0,1,95,53.358a1.641,1.641,0,0,1-.362-.995l.823-.064a1.344,1.344,0,0,0,.275.683,1.468,1.468,0,0,0,.659.43,2.932,2.932,0,0,0,1.012.164,2.772,2.772,0,0,0,.881-.124,1.208,1.208,0,0,0,.576-.341.728.728,0,0,0,.182-.474.674.674,0,0,0-.172-.454,1.4,1.4,0,0,0-.6-.323c-.182-.055-.568-.151-1.179-.27a7.113,7.113,0,0,1-1.276-.347,1.692,1.692,0,0,1-.7-.51,1.114,1.114,0,0,1-.234-.7,1.266,1.266,0,0,1,.283-.782A1.741,1.741,0,0,1,96,48.707a3.644,3.644,0,0,1,1.21-.192,3.927,3.927,0,0,1,1.3.2,1.846,1.846,0,0,1,.868.585,1.533,1.533,0,0,1,.322.866l-.836.058a1.07,1.07,0,0,0-.465-.789,2.031,2.031,0,0,0-1.151-.264,2.172,2.172,0,0,0-1.155.238.718.718,0,0,0-.366.589.591.591,0,0,0,.263.491,4.125,4.125,0,0,0,1.313.395,8.667,8.667,0,0,1,1.47.349,2,2,0,0,1,.849.558,1.27,1.27,0,0,1,.275.789,1.31,1.31,0,0,1-.3.826,1.937,1.937,0,0,1-.874.607,3.479,3.479,0,0,1-1.27.217A4.376,4.376,0,0,1,95.943,54.009Zm-16.927.221-.841-1.156c-.245-.326-.451-.577-.606-.756a1.844,1.844,0,0,0-.425-.367,1.326,1.326,0,0,0-.389-.146,2.574,2.574,0,0,0-.467-.028h-.975v2.454h-.837V48.7h2.818a4.187,4.187,0,0,1,1.288.15,1.4,1.4,0,0,1,.709.528,1.442,1.442,0,0,1,.257.832,1.311,1.311,0,0,1-.434.991,2.338,2.338,0,0,1-1.353.511,2.073,2.073,0,0,1,.51.277,4.035,4.035,0,0,1,.7.734l1.1,1.505Zm-3.7-3.088h1.8a2.938,2.938,0,0,0,.9-.108,1,1,0,0,0,.5-.328.814.814,0,0,0,.167-.495.776.776,0,0,0-.327-.644,1.645,1.645,0,0,0-1.029-.255H75.313Zm-24,3.088V48.7h2.4a7.412,7.412,0,0,1,.967.05,2.042,2.042,0,0,1,.781.264,1.429,1.429,0,0,1,.518.535,1.487,1.487,0,0,1,.189.753,1.569,1.569,0,0,1-.515,1.19,2.735,2.735,0,0,1-1.871.487H52.154v2.248Zm.837-2.9H53.8a1.891,1.891,0,0,0,1.151-.264.87.87,0,0,0,.344-.736.985.985,0,0,0-.2-.6.97.97,0,0,0-.54-.323,4.067,4.067,0,0,0-.778-.047H52.154Zm34.7,2.868V48.671h.876v5.524ZM19.08,38.66a4.669,4.669,0,0,1-2.129-1.351,3.386,3.386,0,0,1-.832-2.1l-.011-.3,2.32-.164.042.282a2.257,2.257,0,0,0,.491,1.159,2.865,2.865,0,0,0,1.253.742,6.358,6.358,0,0,0,2.021.3A6.1,6.1,0,0,0,23.992,37a2.308,2.308,0,0,0,1.049-.572,1.014,1.014,0,0,0,.3-.7.873.873,0,0,0-.278-.65,2.643,2.643,0,0,0-1.113-.553c-.351-.1-1.144-.271-2.421-.506a16.162,16.162,0,0,1-2.727-.682,3.972,3.972,0,0,1-1.6-1.085,2.341,2.341,0,0,1-.557-1.522,2.6,2.6,0,0,1,.666-1.708,3.933,3.933,0,0,1,1.871-1.158,8.588,8.588,0,0,1,2.631-.382,9,9,0,0,1,2.806.4,4.157,4.157,0,0,1,1.942,1.213,3.065,3.065,0,0,1,.754,1.858l.016.306L24.99,31.4l-.04-.283a1.72,1.72,0,0,0-.816-1.3,4.254,4.254,0,0,0-2.236-.466,4.539,4.539,0,0,0-2.253.42,1.042,1.042,0,0,0-.609.865.788.788,0,0,0,.4.688,7.957,7.957,0,0,0,2.634.708,22.516,22.516,0,0,1,3.1.692,4.39,4.39,0,0,1,1.91,1.172,2.518,2.518,0,0,1,.658,1.713,2.754,2.754,0,0,1-.7,1.795,4.46,4.46,0,0,1-1.951,1.259,8.277,8.277,0,0,1-2.764.437A10.332,10.332,0,0,1,19.08,38.66Zm128.528.27V31.136l-3.528,7.793h-2.056l-3.486-7.911v7.911h-2.39V27.666h3.274l3.354,7.724c.145.342.274.641.382.9q.191-.434.447-1.016l3.419-7.607H150V38.929Zm-45.957,0V27.665h10.6v1.871H104.1v2.639h7.632V34.05H104.1v3.008h8.478v1.871Zm-17.875,0V27.665h5.076a15.711,15.711,0,0,1,2.518.156,5.679,5.679,0,0,1,2.145.807,4.836,4.836,0,0,1,1.745,1.942,6.034,6.034,0,0,1,.576,2.67,6.221,6.221,0,0,1-.389,2.262,5.347,5.347,0,0,1-1,1.646,5.155,5.155,0,0,1-1.349,1.03,6.44,6.44,0,0,1-1.74.565,12.879,12.879,0,0,1-2.279.185Zm2.452-1.87h2.644a8.7,8.7,0,0,0,2.061-.189,3.107,3.107,0,0,0,1.138-.5,3.049,3.049,0,0,0,.914-1.223,5,5,0,0,0,.339-1.932,3.766,3.766,0,0,0-.648-2.374,3.124,3.124,0,0,0-1.578-1.1,8.989,8.989,0,0,0-2.28-.205h-2.59Zm-19.177,1.87V27.665H77.66v1.871H69.5v2.639h7.636V34.05H69.5v3.008H77.98v1.871Zm-8.789,0V33.906H51.683v5.024h-2.44V27.666h2.44v4.368h6.581V27.666h2.442V38.929Zm-21.24,0V29.537H32.467V27.665H44.024v1.871H39.469v9.393ZM0,38.929V27.666H10.61v1.869H2.452v2.639h7.633v1.875H2.452v3.009h8.481v1.871Zm128.465,0L126.54,36.6c-.524-.626-.963-1.113-1.3-1.442a3.636,3.636,0,0,0-.852-.656,3.088,3.088,0,0,0-.762-.257,8.055,8.055,0,0,0-.961-.04h-1.824v4.725H118.4V27.666h6.451a10.87,10.87,0,0,1,2.9.3,3.343,3.343,0,0,1,1.694,1.116,2.855,2.855,0,0,1,.646,1.8,2.658,2.658,0,0,1-1.076,2.144,4.854,4.854,0,0,1-2.07.892c.078.045.148.092.213.138a8.272,8.272,0,0,1,1.576,1.47l2.818,3.407Zm-7.622-6.569h3.637a7.115,7.115,0,0,0,1.882-.187,1.839,1.839,0,0,0,.931-.54A1.124,1.124,0,0,0,127,29.895a3.825,3.825,0,0,0-2.079-.435h-4.083Zm-45.872-15.6c-26.579,0-40.889,4.648-40.889,4.648S46.99,15.63,74.971,15.63s40.949,5.777,40.949,5.777S101.543,16.759,74.971,16.759ZM29.62,6.312,30.9,5.9l3.081,9.668-1.279.406Zm84.494,9,2.641-8.55-3.194-.985.354-1.145L121.6,7l-.353,1.142-3.206-.989-2.642,8.55ZM37.532,4.013l1.348-.281,6.841,6.713L44.1,2.648l1.259-.262,2.069,9.933-1.349.28L39.235,5.878l1.622,7.805-1.258.263Zm64.6,8.642a4.874,4.874,0,0,1-2.207-.9A2.8,2.8,0,0,1,98.9,10.128a6.786,6.786,0,0,1,.069-2.57l1.04-5.769,1.321.237-1.037,5.761a5.641,5.641,0,0,0-.1,1.962,1.85,1.85,0,0,0,.66,1.1,2.893,2.893,0,0,0,1.379.595,2.8,2.8,0,0,0,2.2-.286A3.874,3.874,0,0,0,105.5,8.727l1.038-5.761,1.321.237-1.038,5.769a6.906,6.906,0,0,1-.771,2.329,2.96,2.96,0,0,1-1.49,1.219,3.62,3.62,0,0,1-1.355.238A6.07,6.07,0,0,1,102.131,12.655ZM54.706,11.071a3.225,3.225,0,0,1-1.579-1.047,3.42,3.42,0,0,1-.746-1.755l1.25-.243a2.783,2.783,0,0,0,.546,1.2,2.291,2.291,0,0,0,1.1.678,3.908,3.908,0,0,0,1.582.136,3.748,3.748,0,0,0,1.323-.369,1.881,1.881,0,0,0,.8-.715,1.444,1.444,0,0,0,.2-.893,1.328,1.328,0,0,0-.36-.8,2.057,2.057,0,0,0-.973-.5A18.361,18.361,0,0,0,56,6.457a9.213,9.213,0,0,1-2.012-.423,2.744,2.744,0,0,1-1.177-.825,2.305,2.305,0,0,1-.487-1.22A2.58,2.58,0,0,1,52.6,2.515a2.707,2.707,0,0,1,1.16-1.141A4.838,4.838,0,0,1,55.578.834a5.057,5.057,0,0,1,2.015.152,2.869,2.869,0,0,1,1.431.924,3.091,3.091,0,0,1,.664,1.538l-1.271.231a2.07,2.07,0,0,0-.85-1.371,2.75,2.75,0,0,0-1.81-.3,2.809,2.809,0,0,0-1.718.63A1.335,1.335,0,0,0,53.6,3.763a1.157,1.157,0,0,0,.489.853,5.32,5.32,0,0,0,2.086.507,13.389,13.389,0,0,1,2.3.408,3.1,3.1,0,0,1,1.411.892,2.532,2.532,0,0,1,.57,1.391,2.744,2.744,0,0,1-.3,1.566,3.052,3.052,0,0,1-1.209,1.247,4.59,4.59,0,0,1-1.9.6,8.089,8.089,0,0,1-.847.047A4.981,4.981,0,0,1,54.706,11.071Zm33.932-.331.768-8.916-3.331-.286.1-1.193,8.012.69-.1,1.193L90.745,1.94l-.768,8.916ZM68.508,1.328l-3.341.092-.033-1.2L73.173,0l.033,1.2-3.354.093.247,8.946-1.341.037Zm10.2,8.9L78.98.089l1.341.035-.265,10.14Z" transform="translate(138 67)"/></g></svg>